<?xml version="1.0" encoding="UTF-8" standalone="no"?>
<!-- Created with Sodipodi ("http://www.sodipodi.com/") -->
<svg
   xmlns:dc="http://purl.org/dc/elements/1.1/"
   xmlns:cc="http://web.resource.org/cc/"
   xmlns:rdf="http://www.w3.org/1999/02/22-rdf-syntax-ns#"
   xmlns:svg="http://www.w3.org/2000/svg"
   xmlns="http://www.w3.org/2000/svg"
   xmlns:xlink="http://www.w3.org/1999/xlink"
   xmlns:sodipodi="http://sodipodi.sourceforge.net/DTD/sodipodi-0.dtd"
   xmlns:inkscape="http://www.inkscape.org/namespaces/inkscape"
   viewBox="0 0 256 256"
   overflow="visible"
   enable-background="new 0 0 256 256"
   xml:space="preserve"
   id="svg153"
   sodipodi:version="0.32"
   sodipodi:docname="question book magnify2.svg"
   sodipodi:docbase="C:\Documents and Settings\Owner\Desktop"
   inkscape:version="0.45.1"
   inkscape:output_extension="org.inkscape.output.svg.inkscape"><metadata
   id="metadata2248"><rdf:RDF><cc:Work
       rdf:about=""><dc:format>image/svg+xml</dc:format><dc:type
         rdf:resource="http://purl.org/dc/dcmitype/StillImage" /></cc:Work></rdf:RDF></metadata>
  <defs
   id="defs192"><linearGradient
     id="XMLID_2_"
     gradientUnits="userSpaceOnUse"
     x1="211.957"
     y1="220.9199"
     x2="223.1826"
     y2="208.0907"
     gradientTransform="matrix(0.9999,1.2e-2,-1.2e-2,0.9999,2.579,-2.6)">
      <stop
   offset="0"
   style="stop-color:#FF9900"
   id="stop173" />
      <stop
   offset="1"
   style="stop-color:#FFCC66"
   id="stop174" />
    </linearGradient><linearGradient
     id="XMLID_3_"
     gradientUnits="userSpaceOnUse"
     x1="98.5576"
     y1="135.627"
     x2="189.6787"
     y2="135.627">
      <stop
   offset="0"
   style="stop-color:#FFFFFF"
   id="stop184" />
      <stop
   offset="1"
   style="stop-color:#CBD5E8"
   id="stop185" />
    </linearGradient><linearGradient
     id="linearGradient3212"><stop
       id="stop3214"
       offset="0"
       style="stop-color:#fffbf0;stop-opacity:1;" /><stop
       id="stop3216"
       offset="1"
       style="stop-color:#fff3b9;stop-opacity:1;" /></linearGradient></defs>
  <sodipodi:namedview
   id="base"
   inkscape:zoom="9.8774196"
   inkscape:cx="21.029584"
   inkscape:cy="35.286201"
   inkscape:window-width="1680"
   inkscape:window-height="991"
   inkscape:window-x="0"
   inkscape:window-y="23"
   inkscape:current-layer="svg153" />
  <g
   id="Layer_2"
   stroke="#000000">
    <path
   d="M256,256H0V0h256V256z"
   id="path155"
   stroke="none"
   fill="none" />
  </g>
  
<g
   transform="translate(-134.04826,-337.06692)"
   id="layer1"
   inkscape:label="Layer 1"><path
     id="path2239"
     d="M 294.37859,365.78129 C 297.01493,365.78136 301.20791,370.34795 338.06609,408.00004 L 368.19109,438.75004 L 368.19109,443.18754 C 368.19108,447.18297 368.77174,448.30644 374.15984,454.43754 C 380.06987,461.16256 380.14267,461.32181 380.15984,467.37504 C 380.17037,471.09202 379.69934,473.8883 378.94109,474.50004 C 378.25358,475.0547 372.96609,476.28052 367.19109,477.21879 C 361.41608,478.15707 344.44034,481.36937 329.47234,484.34379 C 314.50434,487.3182 302.01101,489.75004 301.72234,489.75004 C 301.43366,489.75004 298.73038,491.99469 295.72234,494.71879 C 287.40884,502.24753 285.09804,503.18996 274.62859,503.34379 L 265.53484,503.46879 L 251.22234,511.18754 C 234.43589,520.23362 220.33376,528.85348 203.69109,540.21879 C 188.7199,550.44264 189.61037,549.9743 188.40984,548.50004 C 187.85492,547.8186 185.35431,542.30004 182.84734,536.25004 C 173.21101,512.99491 165.05813,493.22181 153.72234,465.50004 L 141.97234,436.71879 L 143.56609,433.34379 C 144.45149,431.47795 145.19109,428.86084 145.19109,427.53129 C 145.19109,426.20174 145.88054,422.80344 146.72234,419.96879 C 147.86373,416.1253 149.19858,414.09233 151.97234,412.03129 C 154.01804,410.51123 159.96609,405.29123 165.19109,400.40629 C 181.93974,384.74771 193.08141,378.75004 205.50359,378.75004 C 210.93638,378.75004 212.46119,379.16193 215.78484,381.59379 C 217.92986,383.16327 220.54959,385.41327 221.59734,386.59379 C 224.34271,389.68707 225.67188,389.28921 228.50359,384.50004 C 232.0432,378.51362 237.82754,373.23034 243.65984,370.65629 C 247.97594,368.75141 251.34915,368.34481 268.65984,367.62504 C 279.66572,367.16741 290.35403,366.4991 292.40984,366.15629 C 293.23341,366.01896 293.7702,365.78127 294.37859,365.78129 z "
     style="opacity:1;fill:#ffffff;fill-opacity:0;fill-rule:evenodd;stroke:#2b2b2b;stroke-width:0;stroke-linecap:butt;stroke-linejoin:round;stroke-miterlimit:4;stroke-dasharray:none;stroke-dashoffset:0;stroke-opacity:1" /><path
     transform="translate(135.06609,358.03129)"
     id="path2176"
     d="M 159.3125,7.75 C 158.70411,7.7499842 158.16732,7.9876656 157.34375,8.125 C 155.28794,8.46781 144.59964,9.1361196 133.59375,9.59375 C 116.28306,10.31352 112.90985,10.72012 108.59375,12.625 C 102.76145,15.19905 96.977107,20.48233 93.4375,26.46875 C 90.60579,31.25792 89.276621,31.68703 86.53125,28.59375 C 85.4835,27.41323 82.863772,25.16323 80.71875,23.59375 C 77.3951,21.16189 75.870291,20.71875 70.4375,20.71875 C 58.01532,20.71875 46.873651,26.71642 30.125,42.375 C 24.9,47.25994 18.951951,52.511191 16.90625,54.03125 C 14.13249,56.09229 12.79764,58.09401 11.65625,61.9375 C 10.81445,64.77215 10.125,68.170453 10.125,69.5 C 10.125,70.82955 9.3854001,73.446658 8.5,75.3125 L 6.90625,78.71875 L 18.65625,107.46875 C 29.99204,135.19052 38.144918,154.96362 47.78125,178.21875 C 50.28822,184.26875 52.788828,189.78731 53.34375,190.46875 C 54.54428,191.94301 53.653813,192.41136 68.625,182.1875 C 85.26767,170.82219 99.369798,162.20234 116.15625,153.15625 L 130.46875,145.4375 L 139.5625,145.3125 C 150.03195,145.15867 152.34275,144.21624 160.65625,136.6875 C 163.66429,133.9634 166.36757,131.71875 166.65625,131.71875 C 166.94492,131.71875 179.43825,129.28691 194.40625,126.3125 C 209.37425,123.33808 226.34999,120.15703 232.125,119.21875 C 237.9,118.28048 243.18749,117.05466 243.875,116.5 C 244.63325,115.88826 245.10428,113.06073 245.09375,109.34375 C 245.07658,103.29052 245.00378,103.13127 239.09375,96.40625 C 233.70565,90.27515 233.12499,89.182928 233.125,85.1875 L 233.125,80.75 L 203,49.96875 C 166.14182,12.316663 161.94884,7.7500686 159.3125,7.75 z M 157.28125,12.28125 C 158.56518,11.72509 166.41625,19.127919 191.28125,44.25 C 209.06307,62.21566 223.76571,77.505177 223.9375,78.25 C 224.32414,79.92637 222.5248,80.237687 200.03125,82.21875 C 182.98779,83.7198 171.10941,86.134897 164.84375,89.375 C 160.42345,91.66083 152.39914,99.439487 149.90625,103.875 C 148.71996,105.98572 147.27615,107.71875 146.6875,107.71875 C 145.42115,107.71875 135.8163,94.620701 110.125,57.8125 C 106.55,52.69056 101.4875,45.554599 98.875,41.96875 C 96.2625,38.3829 94.125003,34.93465 94.125,34.3125 C 94.125,32.8697 98.605771,26.066741 102,22.375 C 108.00573,15.84285 112.81941,14.63226 136.125,13.75 C 146.85,13.34399 156.36307,12.67898 157.28125,12.28125 z M 70,24.875 C 72.108342,24.837792 74.032385,25.13261 75.65625,25.75 C 80.25866,27.49984 91.05214,38.800452 98.53125,49.71875 C 102.48716,55.49375 110.61674,67.193748 116.59375,75.71875 C 122.57076,84.24375 129.89237,94.716327 132.875,99 C 135.95561,103.42435 138.06858,107.41976 137.75,108.25 C 137.34234,109.31233 135.49208,109.71875 131.03125,109.71875 C 115.63464,109.71875 100.03393,117.34978 80.34375,134.5 C 76.33977,137.98748 70.118889,143.06577 66.53125,145.78125 C 62.9436,148.49673 59.636491,150.71875 59.1875,150.71875 C 58.23128,150.71875 57.923688,150.01677 36.46875,99.375 C 27.41476,78.00417 20.14439,59.74671 20.3125,58.8125 C 20.6967,56.6774 40.305521,38.624589 48.3125,33.03125 C 55.613142,27.931325 63.674973,24.986624 70,24.875 z M 16.03125,64.75 C 16.322358,64.708578 16.65555,64.887456 17.03125,65.28125 C 17.52099,65.79458 26.455699,86.468748 36.875,111.21875 L 55.8125,156.21875 L 55.34375,162.96875 C 54.87385,169.74935 53.9901,171.21792 52.28125,167.96875 C 51.35262,166.20306 39.473601,138.23313 22.90625,98.78125 C 14.41896,78.57047 13.91687,77.032017 14.3125,71.5625 C 14.640947,67.02167 15.157927,64.874266 16.03125,64.75 z M 221.34375,86.15625 C 228.67081,86.019996 229.125,87.290411 229.125,91.8125 C 229.125,93.91809 229.6118,97.951132 230.21875,100.78125 C 231.01061,104.47355 231.02685,106.22315 230.25,107 C 229.61538,107.63462 221.58493,108.41606 210.875,108.875 C 178.68226,110.25452 174.48613,111.31503 165.3125,120.4375 C 162.38913,123.34457 159.67479,125.71875 159.28125,125.71875 C 158.8877,125.71875 158.04595,124.35105 157.40625,122.65625 C 156.37349,119.92016 155.82868,119.60706 152.71875,119.875 C 150.79238,120.04097 148.93356,119.9023 148.59375,119.5625 C 147.52242,118.49116 154.73915,105.39277 158.5625,101.46875 C 166.89343,92.91845 181.99884,88.697609 211.46875,86.6875 C 215.6769,86.400468 218.9014,86.201668 221.34375,86.15625 z M 132.96875,114.53125 C 137.00514,114.51381 140.72064,114.93939 141.25,115.46875 C 141.86665,116.0854 141.63362,117.91681 140.5625,120.59375 C 139.643,122.89181 138.37126,127.35381 137.75,130.5 L 136.625,136.21875 L 128.625,136.84375 C 119.81378,137.53263 113.59503,139.59817 103.65625,145.15625 C 96.83981,148.96822 78.077853,162.74202 67.625,171.59375 C 59.54735,178.43413 58.659099,178.34008 59.46875,170.59375 C 59.8221,167.21307 60.124999,162.71726 60.125,160.625 C 60.125,156.99535 60.549213,156.51629 69.375,149.875 C 74.4625,146.04673 83.125003,139.239 88.625,134.75 C 105.91009,120.64222 119.16586,114.59087 132.96875,114.53125 z "
     style="fill:#845507;fill-opacity:1" /></g><g
   id="g240"
   transform="matrix(1.0680923,0,0,0.9685767,-78.397188,-24.937293)">
    <path
   d="M 249.922,236.827 L 201.161,188.067 C 198.656,185.562 194.595,185.562 192.09,188.067 L 191.523,188.634 L 185.088,182.199 C 195.407,171.779 201.785,157.448 201.785,141.625 C 201.785,109.777 175.967,83.958 144.117,83.958 C 112.269,83.958 86.451,109.776 86.451,141.625 C 86.451,173.474 112.269,199.292 144.117,199.292 C 157.832,199.292 170.421,194.496 180.319,186.501 L 186.987,193.169 L 186.419,193.736 C 183.914,196.241 183.914,200.302 186.419,202.806 L 235.18,251.568 C 237.686,254.072 241.746,254.072 244.251,251.568 L 249.922,245.898 C 252.427,243.394 252.427,239.332 249.922,236.827 z "
   id="path169"
   style="font-size:12px;opacity:0.2;stroke:none" />
    <path
   d="M 147.865,148.048 L 195.491,195.674 L 200.027,191.14 L 152.401,143.514 L 147.865,148.048 z "
   id="path170"
   style="font-size:12px;stroke:none" />
    <path
   d="M 186.419,187.737 C 183.914,190.242 183.914,194.303 186.419,196.807 L 235.18,245.569 C 237.686,248.073 241.746,248.073 244.251,245.569 L 249.922,239.899 C 252.427,237.393 252.427,233.332 249.922,230.827 L 201.161,182.067 C 198.656,179.562 194.595,179.562 192.09,182.067 L 186.419,187.737 z "
   id="path171"
   style="font-size:12px;fill:#993300;stroke:none" />
    <path
   d="M 199.248,184.105 C 198.013,182.84 195.977,182.816 194.713,184.051 L 188.975,189.654 C 187.71,190.888 187.686,192.924 188.92,194.188 L 237.093,243.529 C 238.328,244.796 240.364,244.82 241.628,243.584 L 247.365,237.983 C 248.632,236.748 248.656,234.712 247.42,233.448 L 199.248,184.105 z "
   id="path178"
   style="font-size:12px;fill:url(#XMLID_2_);stroke:none" />
    <path
   d="M 86.451,135.626 C 86.451,167.475 112.269,193.293 144.117,193.293 C 175.967,193.293 201.785,167.475 201.785,135.626 C 201.785,103.778 175.967,77.959 144.117,77.959 C 112.27,77.959 86.451,103.778 86.451,135.626 z "
   id="path179"
   style="font-size:12px;fill:#333333;stroke:none" />
    <path
   d="M 90.54,135.626 C 90.54,165.169 114.576,189.204 144.118,189.204 C 173.662,189.204 197.697,165.169 197.697,135.626 C 197.697,106.083 173.662,82.048 144.118,82.048 C 114.575,82.048 90.54,106.083 90.54,135.626 z "
   id="path180"
   style="font-size:12px;fill:#cccccc;stroke:none" />
    <path
   d="M 92.143,136.428 C 92.143,106.886 116.179,82.85 145.722,82.85 C 153.897,82.85 161.647,84.698 168.586,87.986 C 161.244,84.201 152.931,82.049 144.117,82.049 C 114.575,82.049 90.539,106.084 90.539,135.627 C 90.539,156.996 103.116,175.475 121.254,184.069 C 103.986,175.164 92.143,157.158 92.143,136.428 z "
   id="path181"
   style="font-size:12px;fill:#ffffff;stroke:none" />
    <path
   d="M 95.351,135.626 C 95.351,162.518 117.228,184.393 144.118,184.393 C 171.009,184.393 192.886,162.518 192.886,135.626 C 192.886,108.736 171.009,86.859 144.118,86.859 C 117.228,86.859 95.351,108.736 95.351,135.626 z "
   id="path182"
   style="font-size:12px;fill:#003366;stroke:none" />
    <path
   d="M 98.558,135.626 C 98.558,160.748 118.996,181.187 144.118,181.187 C 169.241,181.187 189.68,160.749 189.68,135.626 C 189.68,110.505 169.242,90.066 144.118,90.066 C 118.996,90.066 98.558,110.505 98.558,135.626 z "
   id="path189"
   style="font-size:12px;fill:url(#XMLID_3_);stroke:none" />
    <path
   d="M 100.558,135.626 C 100.558,142.025 101.956,148.1 104.445,153.578 C 106.086,153.003 107.623,152.181 109,151 C 131.087,136.059 149.378,113.525 171.82,102.034 C 164.285,95.81 154.63,92.066 144.117,92.066 C 120.098,92.066 100.558,111.607 100.558,135.626 z "
   id="path190"
   style="font-size:12px;fill:#ffffff;stroke:none" />
  </g><path
   d="M 74.621998,75.275276 C 67.631098,75.275276 65.655328,75.691626 59.871998,78.431526 C 48.481908,83.827676 40.059498,93.361616 40.059498,100.80653 C 40.059498,107.74111 45.334678,112.77529 52.590748,112.77528 C 60.477678,112.77528 65.713228,106.36956 60.965748,102.52528 C 58.956368,100.89819 57.661598,100.68761 52.465748,101.24403 C 45.575398,101.98193 44.795908,101.38675 46.184498,96.212775 C 47.364228,91.817026 54.484108,85.180466 62.028248,81.462776 C 74.310278,75.410306 85.059488,77.880306 85.059498,86.744026 C 85.059498,88.731436 83.662938,94.346316 81.965748,99.212775 C 78.458528,109.26931 78.603028,112.89347 82.684498,117.74403 C 84.086508,119.41022 85.556308,120.77528 85.965748,120.77528 C 86.375188,120.77528 86.727428,118.86278 86.746998,116.52528 C 86.769248,113.86728 88.163568,109.22365 90.434498,104.11903 C 94.586818,94.785376 95.016828,89.554136 92.121998,83.994026 C 91.059578,81.953436 88.493718,79.150276 86.434498,77.775276 C 83.212968,75.624156 81.569528,75.275276 74.621998,75.275276 z M 100.97287,122.20724 C 97.164824,122.20724 87.961259,132.38828 90.147709,134.57471 C 91.484039,135.91105 97.706096,134.74771 100.71734,131.7365 C 104.51242,127.94143 104.40298,122.20724 100.97287,122.20724 z "
   style="fill:#000000;fill-opacity:1;fill-rule:evenodd;stroke:#2b2b2b;stroke-width:0;stroke-linecap:butt;stroke-linejoin:round;stroke-miterlimit:4;stroke-dashoffset:0;stroke-opacity:1"
   id="path3293"
   sodipodi:nodetypes="csssssssssssssssccssc" /></svg>