<?xml version="1.0" encoding="UTF-8"?>
<svg viewBox="0 0 540.7 547.8" xmlns="http://www.w3.org/2000/svg" xmlns:xlink="http://www.w3.org/1999/xlink">
<linearGradient id="a" gradientUnits="userSpaceOnUse" x1="57.18" x2="157.9" y1="156.5" y2="156.5">
<stop offset="0" stop-color="#fff"/>
<stop offset=".4118" stop-color="#1f1a17"/>
<stop offset=".6" stop-color="#1f1a17"/>
<stop offset="1" stop-color="#fff"/>
</linearGradient>
<radialGradient id="b" cx="103.2" cy="135.9" gradientUnits="userSpaceOnUse" r="21.19">
<stop offset="0" stop-color="#131516"/>
<stop offset="1" stop-color="#131516" stop-opacity="0"/>
</radialGradient>
<radialGradient id="c" cx="125.2" cy="163.8" gradientUnits="userSpaceOnUse" r="2.919">
<stop offset="0" stop-color="#8f562b"/>
<stop offset="1" stop-color="#d5b078"/>
</radialGradient>
<linearGradient id="d">
<stop offset="0" stop-color="#f4e9a3"/>
<stop offset=".4706" stop-color="#f3e8a1"/>
<stop offset=".7608" stop-color="#ecdd96"/>
<stop offset="1" stop-color="#c7a261"/>
</linearGradient>
<linearGradient id="e" gradientUnits="userSpaceOnUse" x1="64.41" x2="117.5" xlink:href="#d" y1="160.4" y2="124.1"/>
<linearGradient id="f" gradientUnits="userSpaceOnUse" x1="149.3" x2="94.13" xlink:href="#d" y1="112.3" y2="151.3"/>
<g transform="matrix(5.169 0 0 5.169 -285.508 -468.049)">
<path d="m157.7 159.7c.858 1.614-.743 1.983-1.527 2.084 0 0-12.91 1.348-30.68 6.097 0 0-1.758 3.068-6.684 4.998-2.469.967-7.948.917-7.948.917-18.79 10.82-33.64 20.68-33.64 20.68-.684.283-1.213.156-1.698-.762l-17.95-47.04c-.672-1.454-.281-2.116.351-2.484 0 0 17.26-11.01 35.41-18.6 14.32-5.986 28.83-7.141 28.83-7.142 7.144 2.454 35.54 41.25 35.54 41.25z" fill="url(#a)" fill-opacity=".502"/>
<path d="m155.9 151.3-6.97-8.491-85.86-3.549s15.99 42.15 15.99 42.98l-.38 1.046c.259.483 1.164 2.4 2.163 1.822 0 0 14.54-9.43 32.06-19.52 0 0 5.111.046 7.414-.855 4.597-1.798 6.234-4.663 6.234-4.663 16.58-4.429 25.29-5.032 28.59-5.602 1.838-.318 1.679-1.929.76-3.169z" fill="#d57123"/>
<path d="m155.4 151.5c.8 1.505-.693 1.85-1.424 1.944 0 0-12.04 1.258-28.62 5.687 0 0-1.64 2.862-6.234 4.662-2.303.901-7.414.855-7.414.855-17.52 10.09-31.38 19.29-31.38 19.29-.638.264-1.132.145-1.583-.711l-16.75-43.88c-.627-1.356-.261-1.974.327-2.318 0 0 16.1-10.27 33.03-17.35 13.36-5.583 26.89-6.661 26.89-6.662 6.664 2.29 33.15 38.47 33.15 38.47z" fill="#e47925"/>
<polygon fill="#c7a261" points="64.52 137.8 81.91 178.2 82.42 168.1 66.83 130.9"/>
<path d="m83.05 167.4s19.9-14.45 22.18-14.57 10.51-.948 10.51-.948l9.04-8.43 23.33-3.36 1.8 10.89-28.58 5.395-4.69 3.042-4.562.761-30.16 18.06 1.14-10.84z" fill="#e7ce8d"/>
<path d="m112.6 159.7s.016-4.61 3.691-6.257c3.675-1.648 4.697 2.883 4.697 2.883l-3.636 3.493-4.752-.119z" fill="url(#c)"/>
<path d="m115.9 152.1-20.97-30.38c-.134-.193-.135-.448-.004-.642.133-.198 3.284-4.866 5.457-6.476 2.742-2.035 9.529-2.356 14.98-2.614 2.701-.127 5.033-.238 6.265-.525.044-.01.087-.015.13-.015.154 0 .303.062.412.176l26.36 27.5c.153.159.2.394.12.6-.08.207-.274.348-.492.364-.215.015-21.56 1.56-25.78 5.066-3.69 3.062-5.488 6.867-5.488 6.867l-.986.084z" fill="url(#f)"/>
<path d="m81.89 167.8-15.7-37.7s12.69-12.61 20.41-13.5l.792-.024c3.719 0 7.21 5.094 7.21 5.094l21.14 30.26c-.001 0-.573.888-.573.888s-2.353-.43-5.121-.43c-2.902 0-5.258.472-6.814 1.365-4.891 2.808-20.48 14.28-20.48 14.28l-.865-.239z" fill="url(#e)"/>
<path d="m151.1 150.4-1.262-10.98c-.047-.354-.227-.647-.452-.891-.039-.043-26.47-27.64-26.47-27.64-.326-.341-.775-.527-1.235-.527-.13 0-3.2.475-6.448.542-2.909.138-6.028.284-8.8.668-2.775.391-5.208.992-6.808 2.169-1.838 1.376-4.1 4.447-5.151 5.932-1.386-1.64-3.953-4.195-7.106-4.233-.204 0-.406.012-.607.035-8.22.972-15.95 8.664-20.11 12.74-1.252 1.01-1.546 2.168-1.546 2.168l-1.437 6.817s-.047.291-.015.663c.032.372.123.682.123.682l16.75 39.24s.44 1.159.96 1.198c.521.04 1.558-.717 1.558-.717l29.21-17.49s2.131 1.182 5.441-.038 3.827-3.77 3.827-3.77l28.81-5.442s.563-.087.721-.293c.158-.206.049-.839.049-.839zm-84.64-18.3s14.47 36.15 14.48 36.18l-.004 6.4-15.75-36.72 1.268-5.862zm31.18-12.88c1.048-1.369 2.382-2.94 3.343-3.647 1.706-1.304 6.005-1.905 10.26-2.17 4.071-.274 8.099-.303 10.24-.707l25.31 26.4c-1.928.161-5.933.529-10.23 1.133-3.001.422-6.139.959-8.827 1.625-2.688.676-4.904 1.44-6.168 2.472-2.748 2.281-4.495 4.951-5.294 6.336l-3.44-4.845-16.82-24.37c.306-.442.905-1.29 1.628-2.23zm-10.62-1.479c.115-.014.23-.02.346-.02 1.454-.016 3.066 1.085 4.269 2.261.602.583 1.106 1.171 1.455 1.61.35.44.54.721.541.721l17.33 24.81 3.021 4.379s-2.392-.249-3.96-.249c-2.44.005-5.248.3-7.382 1.517-4.448 2.558-17.02 11.74-19.96 13.9-.019-.004-.038-.006-.056-.008l-15.14-36.07c3.582-3.512 11.82-11.99 19.54-12.85zm33.36 37.36s-.412 2.091-3.073 3.485-4.721-.349-4.721-.349l-29.56 17.73.19-7.271c2.666-1.956 16.25-11.48 20.56-13.94 1.325-.768 3.505-1.218 6.246-1.214 2.655.001 5.062.421 5.137.433.151.024.306.039.461.039.784.021 1.661-.407 2.206-1.402.032-.062.018-.038.039-.076.2-.405 1.906-3.734 5.164-6.438.702-.595 2.312-1.242 4.359-1.788 5.681-1.536 15.33-2.639 20.18-3.03l.853 8.315-28.04 5.513z" fill="#8f562b"/>
<g fill="none">
<g stroke="#8f562b" stroke-linecap="round" stroke-opacity=".251" stroke-width=".7938">
<path d="m75.29 137s1.268-3.168 3.296-3.928c2.028-.761 4.056-.127 5.703-1.014 1.648-.887 2.662-3.929 3.675-4.562 1.014-.634 5.45-1.394 6.59-1.394"/>
<path d="m77.45 141.8s1.402-3.468 3.43-4.229c2.028-.761 3.992-.19 5.64-1.078 1.647-.887 2.63-3.897 3.644-4.531 1.014-.635 6.297-1.331 7.437-1.331"/>
<path d="m79.61 146.7s1.537-3.77 3.564-4.53c2.028-.761 3.929-.254 5.577-1.141 1.646-.887 2.597-3.865 3.612-4.499 1.013-.633 7.144-1.267 8.285-1.267"/>
<path d="m81.77 151.6s1.671-4.071 3.699-4.832c2.027-.761 3.865-.317 5.513-1.204 1.646-.887 2.566-3.834 3.58-4.467 1.014-.633 7.992-1.204 9.133-1.204"/>
<path d="m83.94 156.5s1.806-4.372 3.834-5.132c2.028-.76 3.802-.38 5.45-1.268 1.647-.886 2.535-3.802 3.548-4.435 1.013-.633 8.84-1.14 9.98-1.14"/>
</g>
<path d="m72.15 129.8s.158-3.011 2.186-3.771c2.028-.761 3.802-.38 5.45-1.267 1.647-.887 2.606-3.7 3.548-4.436 1.743-1.362 4.594-.886 5.735-.886"/>
</g>
<g fill="none">
<g stroke="#8f562b" stroke-linecap="round" stroke-opacity=".251" stroke-width=".7938">
<path d="m102.4 127.7s1.267-3.168 3.295-3.928c2.028-.761 4.056-.128 5.703-1.014 1.648-.887 2.662-3.929 3.675-4.562 1.014-.634 5.45-1.394 6.591-1.394"/>
<path d="m104.6 132.5s1.402-3.469 3.43-4.23c2.028-.76 3.992-.19 5.64-1.077 1.647-.887 2.63-3.897 3.643-4.531 1.014-.634 6.298-1.331 7.438-1.331"/>
<path d="m106.8 137.4s1.537-3.77 3.565-4.53c2.028-.76 3.928-.254 5.576-1.141 1.648-.887 2.598-3.866 3.612-4.499 1.013-.633 7.144-1.267 8.284-1.267"/>
<path d="m108.9 142.3s1.671-4.072 3.699-4.832c2.027-.76 3.865-.316 5.513-1.204 1.647-.886 2.566-3.834 3.58-4.468 1.014-.634 7.992-1.204 9.132-1.204"/>
<path d="m111.1 147.2s1.806-4.372 3.834-5.133c2.027-.761 3.802-.38 5.449-1.268 1.647-.887 2.534-3.802 3.548-4.436 1.014-.633 8.84-1.14 9.98-1.14"/>
</g>
<path d="m99.29 120.5s.158-3.01 2.186-3.771c2.028-.76 3.802-.38 5.45-1.267 1.647-.887 2.606-3.7 3.548-4.436 1.743-1.362 4.594-.887 5.735-.887"/>
</g>
<path d="m126.7 137c0 4.459-10.35 8.097-23.03 8.097-12.69 0-23.03-3.638-23.03-8.099 0-4.46 10.35-8.098 23.03-8.098 12.69 0 23.03 3.637 23.03 8.098v.001z" fill="url(#b)"/>
<path d="m126.3 115.3c0 12.47-10.17 22.64-22.64 22.64-12.47 0-22.64-10.17-22.64-22.64 0-12.47 10.17-22.64 22.64-22.64 12.47 0 22.64 10.17 22.64 22.64l0 0z" fill="#e46d21" stroke="#9b4a29" stroke-linecap="round" stroke-linejoin="round" stroke-width=".2599"/>
<path d="m125.7 115.2c0 12.07-9.844 21.91-21.91 21.91-12.07 0-21.91-9.843-21.91-21.91 0-12.07 9.843-21.91 21.91-21.91 12.07 0 21.91 9.843 21.91 21.91l0 0v0z" fill="#131516" stroke="#eea33b" stroke-linecap="round" stroke-linejoin="round" stroke-width=".2599"/>
<path d="m100.6 103.2c-.14 0-.256.19-.256.418l1.16 15.73c0 .228.116.418.256.418 0 0 .916.013 1.671 0 .249-.004.325.022.55 0 .755.013 1.671 0 1.671 0 .14 0 .256-.19.256-.418l1.16-15.73c0-.228-.116-.386-.256-.386h-2.811c-.01-.002-.009-.032-.02-.032h-3.38z" fill="#fff"/>
<path d="m106.2 124.8c0 1.381-1.127 2.508-2.509 2.508-1.382 0-2.509-1.127-2.509-2.509 0-1.382 1.127-2.509 2.509-2.509 1.382 0 2.509 1.127 2.509 2.509v0z" fill="#fff"/>
<path d="m124.8 114.3c0 11.8-6.592-4.69-20.34.421-13.86 5.152-22.4 11.38-22.4-.421 0-11.8 9.574-21.37 21.37-21.37s21.37 9.574 21.37 21.37z" fill="#fdfcfd" fill-opacity=".2157"/>
</g>
</svg>
